<?xml version="1.0" encoding="UTF-8" standalone="no"?>
<svg
   xmlns:dc="http://purl.org/dc/elements/1.1/"
   xmlns:cc="http://creativecommons.org/ns#"
   xmlns:rdf="http://www.w3.org/1999/02/22-rdf-syntax-ns#"
   xmlns:svg="http://www.w3.org/2000/svg"
   xmlns="http://www.w3.org/2000/svg"
   id="svg20"
   version="1.1"
   viewBox="0 0 192.756 192.756"
   height="2500"
   width="2500">
  <metadata
     id="metadata26">
    <rdf:RDF>
      <cc:Work
         rdf:about="">
        <dc:format>image/svg+xml</dc:format>
        <dc:type
           rdf:resource="http://purl.org/dc/dcmitype/StillImage" />
        <dc:title></dc:title>
      </cc:Work>
    </rdf:RDF>
  </metadata>
  <defs
     id="defs24" />
  <g
     style="clip-rule:evenodd;fill-rule:evenodd"
     id="g18">
    <path
       style="fill:#c7283a"
       id="path4"
       d="m 112.281,109.91 c 7.508,-9.68 10.668,-6.52 11.062,-5.729 0.594,-6.125 -3.752,-6.914 -3.752,-6.914 h -4.939 c -0.791,-1.581 -2.568,-1.383 -2.568,-1.383 h -8.297 c 0,0 8.889,-12.446 9.482,-13.434 h 27.064 c 0,0 -14.816,19.954 -15.805,21.534 -9.088,13.039 -18.373,1.975 -18.373,1.975 0,0 -15.605,-22.126 -16.593,-23.509 H 61.509 c 0.987,1.186 16.792,21.731 16.792,21.731 0.988,1.383 3.951,6.125 10.076,6.125 h 25.682 z" />
    <path
       style="fill:#c7283a"
       id="path6"
       d="m 113.664,98.848 c 0.197,0.594 -0.592,0.791 -0.789,0.791 -0.396,0.395 -1.977,0.592 -2.371,-0.197 -0.197,-0.988 -1.186,-0.791 -1.977,-0.988 1.977,-1.383 2.965,-0.791 3.359,-0.791 0.001,-10e-4 1.384,0.196 1.778,1.185 z" />
    <path
       style="fill:#33348e"
       id="path8"
       d="M 32.271,93.513 H 29.9 v -0.197 h 5.532 v 2.371 c 0.395,-1.186 1.383,-2.964 3.753,-2.964 0.593,0 3.358,0 4.939,2.766 0.791,-1.581 1.778,-2.766 4.149,-2.766 1.778,0 3.161,0.593 4.148,1.581 1.186,1.186 1.383,2.37 1.383,4.544 v 7.902 h 2.371 v 0.395 h -7.902 v -0.395 h 2.371 v -9.285 c 0,-2.173 -0.198,-4.544 -2.766,-4.544 -1.186,0 -2.568,0.592 -3.556,2.963 0.197,0.79 0.197,1.778 0.197,2.963 v 7.902 h 2.371 v 0.395 h -7.705 v -0.395 h 2.173 v -9.088 c 0,-2.963 -0.198,-4.741 -2.371,-4.741 -2.766,0 -3.556,3.358 -3.556,5.136 v 8.693 h 2.173 v 0.395 H 29.9 v -0.395 h 2.371 z" />
    <path
       style="fill:#33348e"
       id="path10"
       d="m 58.151,93.513 h -2.173 v -0.197 h 5.532 v 2.371 c 0.395,-1.186 1.383,-2.964 3.753,-2.964 1.778,0 3.358,0.593 4.149,1.581 0.988,1.383 1.186,2.964 1.186,4.544 v 7.902 h 2.37 v 0.395 h -7.705 v -0.395 h 2.173 v -9.088 c 0,-2.963 -0.396,-4.741 -2.371,-4.741 -2.568,0 -3.556,2.963 -3.556,5.136 v 8.693 h 2.173 v 0.395 H 55.977 V 106.75 H 58.15 V 93.513 Z" />
    <path
       style="fill:#33348e"
       id="path12"
       d="m 72.572,106.75 h 2.569 V 93.909 h -2.569 v -0.396 h 5.334 v 13.237 h 2.371 v 0.395 h -7.705 z" />
    <path
       style="fill:#33348e;stroke:#575e7e;stroke-width:0.39899999;stroke-miterlimit:2.61299992"
       id="path14"
       d="m 123.74,106.75 h 2.371 V 93.909 h -2.371 v -0.396 h 5.137 v 13.237 h 2.568 v 0.395 h -7.705 z"
       stroke-miterlimit="2.613" />
    <path
       style="fill:#33348e"
       id="path16"
       d="m 132.828,102.799 h 0.395 c 0.592,1.975 1.777,4.346 4.939,4.346 1.383,0 2.568,-0.789 2.568,-2.568 0,-1.58 -0.988,-2.172 -1.977,-2.568 l -2.568,-0.789 c -1.186,-0.396 -3.16,-1.186 -3.16,-3.951 0,-2.371 1.975,-4.149 4.74,-4.149 1.779,0 2.174,0.592 2.965,0.592 0.395,0 0.395,0 0.592,-0.198 h 0.197 v 3.557 h -0.197 c -0.592,-1.779 -1.383,-3.557 -3.557,-3.557 -2.172,0 -3.357,0.988 -3.357,2.569 0,1.383 0.988,1.975 2.963,2.568 l 2.174,0.592 c 1.975,0.791 3.555,1.977 3.555,3.754 0,2.371 -1.975,4.545 -5.137,4.545 -1.975,0 -3.16,-0.791 -4.148,-0.791 -0.395,0 -0.592,0.197 -0.592,0.395 h -0.395 z m 10.668,3.951 h 2.568 V 93.909 h -2.568 v -0.396 h 5.334 v 13.237 h 2.369 v 0.395 h -7.703 z m 15.608,-13.631 c 3.357,0 7.506,2.963 7.506,7.309 0,3.951 -3.754,7.113 -7.506,7.113 -3.754,0 -7.508,-3.162 -7.508,-7.113 0,-4.346 4.148,-7.309 7.508,-7.309 z m 0,14.026 c 2.172,0 4.148,-0.789 4.148,-6.717 0,-5.136 -1.383,-6.915 -4.148,-6.915 -2.965,0 -4.348,1.778 -4.348,6.915 0,5.927 1.976,6.717 4.348,6.717 z m 7.703,-0.395 h 2.568 V 93.909 h -2.568 v -0.396 h 5.137 v 3.358 c 0.594,-1.184 1.977,-3.752 5.531,-3.752 2.766,0 4.742,1.383 4.742,4.346 v 9.285 h 2.568 v 0.395 h -7.705 v -0.395 h 2.371 V 96.477 c 0,-1.778 -0.594,-2.963 -2.371,-2.963 -2.766,0 -5.137,2.569 -5.137,5.928 v 7.309 h 2.568 v 0.395 h -7.705 V 106.75 Z M 16.071,82.253 c 6.717,0 13.237,5.926 13.237,14.026 0,7.111 -5.927,14.225 -13.237,14.225 -7.705,0 -13.236,-6.914 -13.236,-14.225 -10e-4,-8.1 6.915,-14.026 13.236,-14.026 z m 0,27.657 c 6.52,0 8.89,-4.543 8.89,-13.631 0,-6.915 -1.58,-13.631 -8.89,-13.631 -7.31,0 -8.89,6.717 -8.89,13.631 0,9.088 2.371,13.631 8.89,13.631 z m 172.665,-3.16 0.592,-1.383 h 0.594 v 1.975 h -0.396 v -1.58 l -0.592,1.58 h -0.197 l -0.791,-1.58 v 1.58 h -0.197 v -1.975 h 0.395 z m -1.382,-0.988 h -0.594 v 1.58 h -0.395 v -1.58 h -0.592 v -0.395 h 1.58 v 0.395 z" />
  </g>
</svg>
